<svg width="64" height="65" viewBox="0 0 64 65" fill="none" xmlns="http://www.w3.org/2000/svg">
<path d="M23.4965 4.42597C30.0529 2.44015 37.0976 2.81171 43.4087 5.47622C49.7198 8.14073 54.8993 12.9301 58.0489 19.0137C61.1985 25.0973 62.1194 32.0914 60.652 38.783C59.1847 45.4745 55.4215 51.4414 50.0153 55.6488C44.609 59.8563 37.9006 62.0388 31.0536 61.8179C24.2067 61.5969 17.6529 58.9865 12.5291 54.4394C7.40533 49.8922 4.03464 43.6952 3.00166 36.9229C1.96867 30.1507 3.33856 23.2305 6.87372 17.3626" stroke="#FCDCEE" stroke-width="3.33333" stroke-linecap="round" stroke-linejoin="round"/>
<path d="M54 4.5C55.6086 5.68279 57.0847 7.01699 58.4189 8.49311" stroke="#FCDCEE" stroke-width="3.33333" stroke-linecap="round" stroke-linejoin="round"/>
<path d="M17.3332 40.6423L28.7161 34.9423" stroke="#E09ABF" stroke-width="3.33333" stroke-linecap="round" stroke-linejoin="round"/>
<path d="M32.1724 35.5108C33.7402 35.5108 35.0112 34.2399 35.0112 32.6721C35.0112 31.1043 33.7402 29.8334 32.1724 29.8334C30.6047 29.8334 29.3337 31.1043 29.3337 32.6721C29.3337 34.2399 30.6047 35.5108 32.1724 35.5108Z" stroke="#E09ABF" stroke-width="3.33333" stroke-linecap="round" stroke-linejoin="round"/>
<path d="M32.3997 10.5002C44.3277 10.5002 53.9997 20.2021 53.9997 32.1669C53.9997 44.1317 44.3277 53.8335 32.3997 53.8335C29.4238 53.8335 26.5798 53.2317 23.9998 52.1363" stroke="#E09ABF" stroke-width="3.33333" stroke-linecap="round" stroke-linejoin="round"/>
<path d="M12.9026 10.5001H5.33276" stroke="#E09ABF" stroke-width="3.33333" stroke-linecap="round" stroke-linejoin="round"/>
<path d="M26.1503 10.5002H20.4729" stroke="#E09ABF" stroke-width="3.33333" stroke-linecap="round" stroke-linejoin="round"/>
</svg>
