<svg width="96" height="96" viewBox="0 0 96 96" fill="none" xmlns="http://www.w3.org/2000/svg">
<path d="M77.364 15.4122C81.7905 19.3827 84.8894 24.6179 86.241 30.4086C87.5925 36.1992 87.1313 42.2654 84.9199 47.7852C82.7084 53.305 78.8536 58.0115 73.8778 61.2672C68.9019 64.5228 63.0455 66.1702 57.1021 65.9861C51.1586 65.802 45.4154 63.7953 40.6506 60.2379C35.8858 56.6805 32.3297 51.7443 30.4642 46.0982C28.5986 40.4522 28.5138 34.3691 30.2212 28.6732C31.9285 22.9773 35.3456 17.9439 40.0093 14.255" stroke="#E09ABF" stroke-width="5" stroke-linecap="round" stroke-linejoin="round"/>
<path d="M58.8181 66.208V76.9872" stroke="#E09ABF" stroke-width="5" stroke-linecap="round" stroke-linejoin="round"/>
<circle cx="58.8181" cy="84.5327" r="6.46753" stroke="#E09ABF" stroke-width="5"/>
<path d="M74.6011 62.234L79.9907 71.5691" stroke="#E09ABF" stroke-width="5" stroke-linecap="round" stroke-linejoin="round"/>
<circle cx="83.7633" cy="78.1036" r="6.46753" transform="rotate(-30 83.7633 78.1036)" stroke="#E09ABF" stroke-width="5"/>
<path d="M40.9968 63.2336L35.6072 72.5687" stroke="#E09ABF" stroke-width="5" stroke-linecap="round" stroke-linejoin="round"/>
<circle cx="31.8348" cy="79.1034" r="6.46753" transform="rotate(30 31.8348 79.1034)" stroke="#E09ABF" stroke-width="5"/>
<path d="M30.7046 50.2505L21.3695 55.6401" stroke="#E09ABF" stroke-width="5" stroke-linecap="round" stroke-linejoin="round"/>
<circle cx="14.8349" cy="59.4127" r="6.46753" transform="rotate(60 14.8349 59.4127)" stroke="#E09ABF" stroke-width="5"/>
<path d="M27.7922 36.4677L17.013 36.4677" stroke="#E09ABF" stroke-width="5" stroke-linecap="round" stroke-linejoin="round"/>
<circle cx="9.46753" cy="36.4675" r="6.46753" transform="rotate(90 9.46753 36.4675)" stroke="#E09ABF" stroke-width="5"/>
<path d="M30.7043 21.9972L21.3693 16.6076" stroke="#E09ABF" stroke-width="5" stroke-linecap="round" stroke-linejoin="round"/>
<circle cx="14.8349" cy="12.8347" r="6.46753" transform="rotate(120 14.8349 12.8347)" stroke="#E09ABF" stroke-width="5"/>
<path d="M49.6377 47V12.4501C49.6377 10.726 47.9234 9.22677 46.2729 8.72842C44.6224 8.23007 45.3976 7.28088 47.1217 7.28088H69.265C70.7755 7.28088 71.5731 8.20978 70.1544 8.72842C68.7357 9.24706 67.2169 10.5529 67.2169 12.0634V47C67.2169 50.7669 63.28 53.823 58.4273 53.823C53.5746 53.823 49.6377 50.7669 49.6377 47Z" stroke="#E09ABF" stroke-width="5" stroke-miterlimit="10" stroke-linecap="round"/>
<path d="M53.8479 26.7114V46.3967C53.8479 48.3592 55.9064 49.951 58.4266 49.951C60.9547 49.951 63.0054 48.3531 63.0054 46.3967V24.9495C61.08 26.1525 58.6301 26.8755 55.969 26.8755C55.2411 26.8755 54.5367 26.8147 53.8479 26.7114Z" fill="#BE216A"/>
</svg>
