<svg width="64" height="65" viewBox="0 0 64 65" fill="none" xmlns="http://www.w3.org/2000/svg">
<path d="M57.314 28.9769C57.0649 25.8489 54.4068 23.3283 51.2032 23.1744C47.4889 22.9947 44.4189 25.8898 44.4189 29.4848V34.5397C44.4189 34.5397 40.827 32.1566 32.3337 32.1566C23.8404 32.1566 20.2485 34.5397 20.2485 34.5397V29.4848C20.2485 25.8898 17.1799 22.9947 13.4642 23.1744C10.2606 23.3283 7.60388 25.8489 7.35338 28.9769C7.07644 32.4398 9.65658 35.3676 13.0286 35.7557V45.0021C13.0286 46.5654 14.3242 47.8332 15.9218 47.8332H48.7441C50.3418 47.8332 51.6374 46.5654 51.6374 45.0021V35.7557C55.0108 35.3676 57.5895 32.4398 57.3126 28.9769H57.314Z" stroke="#E09ABF" stroke-width="4" stroke-linejoin="round"/>
<path d="M50.6665 23.1667C50.6665 23.1667 49.329 14.5 32.6665 14.5C16.0039 14.5 14.6665 23.1667 14.6665 23.1667" stroke="#E09ABF" stroke-width="4" stroke-linejoin="round"/>
<path d="M60.3234 40.1298C58.6361 46.3931 54.9204 51.9205 49.7575 55.8473C44.5946 59.7741 38.2757 61.8789 31.7893 61.8324C25.3029 61.7858 19.0149 59.5906 13.9088 55.5901C8.80283 51.5896 5.16683 46.0094 3.56964 39.7226" stroke="#FCDCEE" stroke-width="3.33333" stroke-linecap="round" stroke-linejoin="round"/>
<path d="M56.6346 16.576C53.9814 12.4713 50.3446 9.09471 46.0547 6.75289C41.7647 4.41107 36.9576 3.1783 32.0701 3.16659C27.1826 3.15488 22.3696 4.36459 18.0685 6.68582C13.7674 9.00705 10.1144 12.3662 7.44158 16.4581" stroke="#FCDCEE" stroke-width="3.33333" stroke-linecap="round" stroke-linejoin="round"/>
</svg>
