<svg width="96" height="96" viewBox="0 0 96 96" fill="none" xmlns="http://www.w3.org/2000/svg">
<path d="M84.8246 25.98C87.4212 32.3007 87.7025 39.3353 85.6188 45.8431C83.5352 52.3509 79.2204 57.9138 73.4355 61.5509C67.6506 65.1879 60.7672 66.6654 53.9993 65.7227C47.2314 64.78 41.0137 61.4777 36.4429 56.3983C31.8721 51.3188 29.2418 44.7884 29.0159 37.9589C28.7899 31.1294 30.9828 24.4395 35.2079 19.069C39.433 13.6985 45.4187 9.9925 52.1095 8.60454C58.8003 7.21657 65.7663 8.23583 71.779 11.4826" stroke="#E09ABF" stroke-width="5" stroke-linecap="round" stroke-linejoin="round"/>
<path d="M58.8181 66.208V76.9872" stroke="#E09ABF" stroke-width="5" stroke-linecap="round" stroke-linejoin="round"/>
<circle cx="58.8181" cy="84.5327" r="6.46753" stroke="#E09ABF" stroke-width="5"/>
<path d="M74.6011 62.234L79.9907 71.5691" stroke="#E09ABF" stroke-width="5" stroke-linecap="round" stroke-linejoin="round"/>
<circle cx="83.7633" cy="78.1036" r="6.46753" transform="rotate(-30 83.7633 78.1036)" stroke="#E09ABF" stroke-width="5"/>
<path d="M40.9968 63.2336L35.6072 72.5687" stroke="#E09ABF" stroke-width="5" stroke-linecap="round" stroke-linejoin="round"/>
<circle cx="31.8348" cy="79.1034" r="6.46753" transform="rotate(30 31.8348 79.1034)" stroke="#E09ABF" stroke-width="5"/>
<path d="M30.7046 50.2505L21.3695 55.6401" stroke="#E09ABF" stroke-width="5" stroke-linecap="round" stroke-linejoin="round"/>
<circle cx="14.8349" cy="59.4127" r="6.46753" transform="rotate(60 14.8349 59.4127)" stroke="#E09ABF" stroke-width="5"/>
<path d="M27.7922 36.4677L17.013 36.4677" stroke="#E09ABF" stroke-width="5" stroke-linecap="round" stroke-linejoin="round"/>
<circle cx="9.46753" cy="36.4675" r="6.46753" transform="rotate(90 9.46753 36.4675)" stroke="#E09ABF" stroke-width="5"/>
<path d="M30.7043 21.9972L21.3693 16.6076" stroke="#E09ABF" stroke-width="5" stroke-linecap="round" stroke-linejoin="round"/>
<circle cx="14.8349" cy="12.8347" r="6.46753" transform="rotate(120 14.8349 12.8347)" stroke="#E09ABF" stroke-width="5"/>
<line x1="78.9409" y1="17.5355" x2="59.4765" y2="37" stroke="#E09ABF" stroke-width="5" stroke-linecap="round"/>
<rect x="57.6777" y="33.5355" width="7" height="20" rx="3.5" transform="rotate(45 57.6777 33.5355)" fill="#BE216A" stroke="#BE216A" stroke-width="5"/>
</svg>
