<svg width="25" height="24" viewBox="0 0 25 24" fill="none" xmlns="http://www.w3.org/2000/svg">
<g clip-path="url(#clip0_127_1926)">
<path d="M4.03253 19.0214C2.71245 17.4295 1.86785 15.4977 1.59563 13.4477C1.3234 11.3977 1.63459 9.31245 2.49348 7.43123C3.35238 5.55 4.72418 3.94899 6.45152 2.81188C8.17886 1.67478 10.1918 1.04763 12.2593 1.00239C14.3268 0.95715 16.3652 1.49565 18.1406 2.55612C19.9161 3.61659 21.3566 5.15606 22.2969 6.99792C23.2373 8.83978 23.6394 10.9094 23.4571 12.9694C23.2748 15.0294 22.5155 16.9962 21.2663 18.6443" stroke="#BE216A" stroke-width="1.25" stroke-linecap="round" stroke-linejoin="round"/>
<circle cx="12.5" cy="10.5" r="4.5" stroke="#BE216A" stroke-width="1.25"/>
<path d="M5.79945 20.7164C7.6883 18.9736 10.1629 18.0041 12.7329 17.9998C15.3029 17.9955 17.7807 18.9568 19.6754 20.6932" stroke="#BE216A" stroke-width="1.25" stroke-linecap="round"/>
</g>
<defs>
<clipPath id="clip0_127_1926">
<rect width="24" height="24" fill="white" transform="translate(0.5)"/>
</clipPath>
</defs>
</svg>
