<svg width="135" height="40" viewBox="0 0 135 40" fill="none" xmlns="http://www.w3.org/2000/svg">
<g clip-path="url(#clip0_642_4286)">
<path d="M39.8952 19.9012C39.8952 30.8938 30.9817 39.8025 19.994 39.8025C9.00141 39.8025 0.0927734 30.8938 0.0927734 19.9012C0.0927734 8.90864 9.00141 0 19.994 0C30.9866 0 39.8952 8.90864 39.8952 19.9012Z" fill="white"/>
<path d="M17.5493 7.02713C28.4728 6.56293 34.0135 6.8938 36.3148 10.0148C36.0678 9.60985 35.8111 9.21478 35.5394 8.8296C34.9567 8.00985 34.3148 7.24441 33.6234 6.5333C32.932 5.82713 32.1913 5.18022 31.4061 4.59256L31.3666 4.56293C28.8234 2.8296 24.1962 2.83454 16.4777 3.44195C13.4061 3.68886 12.1222 3.758 11.4357 3.70367C10.9024 3.65923 10.5814 3.50614 10.9913 3.13577L11.5246 2.81972L11.5296 2.73083C5.21352 5.91602 7.04068 7.47651 17.5493 7.02713Z" fill="url(#paint0_linear_642_4286)"/>
<path d="M9.05058 35.2592C9.79626 35.7481 10.8135 36.3604 11.5938 36.7851C12.221 37.0864 13.0802 37.437 13.7222 37.6987C16.8086 38.7456 22.3 37.8666 27.1642 36.9629C28.6061 36.6962 28.6061 36.6962 28.8037 36.7407C30.7938 35.6691 30.6358 35.2395 30.1518 35.0666C29.3222 34.7654 27.8061 34.8888 24.4432 35.1851C14.9568 36.0296 10.2111 36.0543 7.41602 33.9506C7.89503 34.3604 8.55676 34.874 9.05058 35.2592Z" fill="url(#paint1_linear_642_4286)"/>
<path d="M4.75943 8.39999C3.01622 11.0617 2.42362 12.6222 2.12733 13.3679C0.497697 18.2222 7.55942 19.0716 18.5125 18.8592C32.5076 18.5876 39.357 19.3333 38.5866 24.163C38.6755 23.7827 38.7495 23.3926 38.8187 23.0074C38.9767 22.0592 39.0607 21.0963 39.0755 20.1284C39.0903 19.1605 39.0261 18.1827 38.8878 17.2099L38.8533 16.9876C37.8854 11.6444 25.3965 12.0642 17.8162 12.316C9.48535 12.5926 2.20634 12.4494 5.21375 7.9111L5.18412 7.88147C5.03103 8.05925 4.88782 8.24196 4.75943 8.39999Z" fill="url(#paint2_linear_642_4286)"/>
<path d="M1.0459 20.5432C1.08047 21.1259 1.16936 21.8914 1.23355 22.4691C1.40145 23.3728 1.678 24.563 1.91997 25.4469C2.1817 26.1926 2.5817 27.1803 2.89281 27.9161C4.92738 32.2519 15.4212 31.6444 23.7323 31.1556C26.8385 30.9778 29.5101 30.8198 31.4163 31.1556C33.6336 31.5506 34.0385 32.5383 32.6459 34.0198L32.6903 34.0543C33.0311 33.7531 33.3718 33.4519 33.6582 33.1803C34.2459 32.5284 35.0015 31.6346 35.5348 30.9383L35.757 30.6173C39.1792 25.4914 31.678 25.1111 22.9521 25.4617C9.98417 25.9901 1.68787 25.3531 1.0459 20.5432Z" fill="url(#paint3_linear_642_4286)"/>
<path d="M11.6087 2.69634L11.5248 2.73584L11.4655 2.85436L12.2063 2.51856C12.6557 2.35066 12.6013 2.66671 12.5766 2.73091C12.3791 3.18029 11.7964 3.8272 9.71738 6.01979C5.1643 10.8149 1.61862 14.7754 1.10998 18.1284C0.902569 20.5877 1.17417 23.1112 1.95936 25.5556C1.19393 21.4321 5.3322 16.242 11.6878 8.85436C15.8952 3.96054 16.8828 1.60498 15.0606 1.60498C14.3396 1.60498 13.1841 1.97041 11.6087 2.69634Z" fill="url(#paint4_radial_642_4286)"/>
<path d="M19.5447 0.800027L19.5497 0.898792C22.7744 1.29385 21.9694 4.27163 17.1102 10.2963C8.09781 21.4766 2.59658 28.2963 5.70769 32.2074C7.36201 34.1185 9.35213 35.6494 11.5447 36.7506C8.48793 34.7901 8.80398 31.0173 19.4114 17.6741C25.2978 10.2766 30.5423 2.94817 24.9768 1.41731C24.483 1.27904 22.8929 0.883977 20.5571 0.780273C20.246 0.780273 19.9003 0.79015 19.5447 0.800027Z" fill="url(#paint5_radial_642_4286)"/>
<path d="M22.8088 24.326C17.4902 30.9284 12.2804 38.0889 18.4433 38.7457C20.2458 38.9087 22.0779 38.7852 23.8853 38.405V38.3358C21.3717 38.6716 20.8038 37.5753 22.2211 34.9679C23.2334 33.1111 25.0853 30.8692 26.4334 29.2346C32.2705 22.1581 38.8236 14.2173 36.3199 10.0247C36.0729 9.61485 35.8162 9.21979 35.5396 8.83954C34.9569 8.01979 34.3199 7.25436 33.6285 6.54325C32.9371 5.83707 32.1964 5.19016 31.4162 4.60744L31.3717 4.57288C34.5125 7.33337 32.2162 12.6519 22.8088 24.326Z" fill="url(#paint6_radial_642_4286)"/>
<path d="M30.0929 31.5803C27.441 34.6617 23.446 39.3185 28.5373 36.8741L28.6904 36.7753L28.7151 36.6914C28.7941 36.4692 28.9571 36.2963 30.2559 34.9926C33.283 31.9556 37.8312 27.3975 38.5917 24.163C38.6806 23.7827 38.7546 23.3926 38.8238 23.0074C38.9818 22.0593 39.0657 21.0963 39.0806 20.1284C39.0904 19.1605 39.0312 18.1827 38.8929 17.2099L38.8583 16.9877C39.0954 20.4494 36.2312 24.4346 30.0929 31.5803Z" fill="url(#paint7_radial_642_4286)"/>
</g>
<path d="M104.873 9.69387C103.431 8.03462 101.554 6.78029 99.5148 6.00005C98.5815 5.62474 96.6852 5.09141 95.4555 4.94326C93.2481 4.67659 88.2407 4.59264 86.7741 4.58276L86.3346 4.60746H79.3271V11.2593H80.9568C81.7321 11.2593 82.3642 11.8618 82.3642 12.6075V28.642C82.3642 29.3828 81.7321 29.9902 80.9568 29.9902H79.3271V36.642H86.7148V36.647L88.3346 36.642C89.1741 36.6075 92.2704 36.6568 95.4555 36.2618C95.7864 36.2173 98.5815 35.5754 99.5148 35.1951C101.559 34.405 103.436 33.1408 104.873 31.4865C106.211 29.9803 107.164 28.1433 107.747 26.2124C108.295 24.3902 108.507 22.484 108.502 20.5828C108.512 18.6815 108.295 16.7754 107.747 14.9531C107.164 13.0272 106.211 11.1902 104.873 9.69387ZM100.339 22.0741C100.186 23.8568 99.6136 25.6791 98.4975 27.0815C97.5938 28.1877 96.3543 29.0025 94.9864 29.4025C94.8432 29.447 94.6901 29.4963 94.5469 29.5359L94.4827 29.5457C93.7864 29.7136 93.0753 29.7828 92.3543 29.8124L91.2234 29.8223L90.8481 29.8075C90.4383 29.7284 90.2259 29.3383 90.1913 28.9433V12.2667C90.2259 11.8717 90.4383 11.4815 90.8481 11.4075C91.0704 11.3877 91.2926 11.3828 91.5197 11.3729C92.5173 11.3828 93.5148 11.4173 94.4827 11.6494L94.5469 11.6642C94.6951 11.6988 94.8481 11.7383 94.9864 11.7877C96.3543 12.1828 97.5938 12.9976 98.4975 14.0988C99.6136 15.5013 100.186 17.3235 100.339 19.1013C100.384 19.5902 100.409 20.084 100.414 20.5877C100.414 21.0914 100.384 21.5852 100.339 22.0741Z" fill="black"/>
<path d="M74.1617 29.9555C73.5493 29.9555 72.8135 29.4765 72.5222 28.8938L69.2777 22.4691C68.7938 21.6296 68.1419 20.8494 67.2481 20.4395C67.7715 20.0889 68.2012 19.6099 68.5518 19.0815L71.9938 12.2913C72.2851 11.7086 73.0259 11.2592 73.6382 11.2592H75.0456V4.61233L72.1123 4.58764C71.4357 4.5827 70.7543 4.57776 70.0728 4.57776C69.0357 4.59257 67.9197 4.69628 67.0703 5.35307C66.3493 5.91109 65.9592 6.7506 65.5592 7.54566C65.3024 8.04936 65.0506 8.55307 64.7938 9.04196L64.8036 9.05183L61.1839 16.1679C60.8876 16.7457 60.1518 17.2247 59.5394 17.2247H58.0431V6.64689C57.9098 5.49628 56.8826 4.59751 55.6481 4.59751H47.1147V11.2345H48.7394C49.5147 11.2345 50.1518 11.837 50.1518 12.5778V28.5827C50.1518 29.3284 49.5147 29.9308 48.7394 29.9308H47.1147V36.5728H55.6481C56.8826 36.5728 57.9098 35.6691 58.0431 34.5185V23.8074H60.0431C60.6506 23.8074 61.3913 24.2815 61.6876 24.8642L63.732 29.0617C64.4629 30.5086 65.3468 32.2518 66.0777 33.6938C66.4777 34.4839 66.8678 35.3234 67.5888 35.8815C68.4333 36.5333 69.5543 36.637 70.5913 36.6469C72.2456 36.642 75.5592 36.5975 75.5592 36.5975V29.9901V29.9555H74.1617Z" fill="black"/>
<path d="M127.614 27.7433V28.6618C127.614 29.4075 126.977 30.0099 126.202 30.0099H120.113V6.89387C120.113 5.62474 119.026 4.58276 117.703 4.58276H109.16V11.2396H110.789C111.565 11.2396 112.202 11.847 112.202 12.5926V28.642C112.202 29.3828 111.565 29.9902 110.789 29.9902H109.16V36.647H132.147C133.471 36.647 134.552 35.6099 134.552 34.3358V27.7433H127.614Z" fill="black"/>
<defs>
<linearGradient id="paint0_linear_642_4286" x1="7.88404" y1="6.37548" x2="36.3146" y2="6.37548" gradientUnits="userSpaceOnUse">
<stop stop-color="#FFD500"/>
<stop offset="1" stop-color="#E94E1B"/>
</linearGradient>
<linearGradient id="paint1_linear_642_4286" x1="7.41844" y1="36.064" x2="30.463" y2="36.064" gradientUnits="userSpaceOnUse">
<stop stop-color="#FFD500"/>
<stop offset="1" stop-color="#E94E1B"/>
</linearGradient>
<linearGradient id="paint2_linear_642_4286" x1="1.89147" y1="16.0173" x2="39.0707" y2="16.0173" gradientUnits="userSpaceOnUse">
<stop stop-color="#FFD500"/>
<stop offset="1" stop-color="#E94E1B"/>
</linearGradient>
<linearGradient id="paint3_linear_642_4286" x1="1.04812" y1="27.2988" x2="36.6036" y2="27.2988" gradientUnits="userSpaceOnUse">
<stop stop-color="#FFD500"/>
<stop offset="1" stop-color="#E94E1B"/>
</linearGradient>
<radialGradient id="paint4_radial_642_4286" cx="0" cy="0" r="1" gradientUnits="userSpaceOnUse" gradientTransform="translate(8.48746 13.5802) scale(9.97106 9.97106)">
<stop stop-color="#C01660"/>
<stop offset="1" stop-color="#2B255F"/>
</radialGradient>
<radialGradient id="paint5_radial_642_4286" cx="0" cy="0" r="1" gradientUnits="userSpaceOnUse" gradientTransform="translate(16.087 18.7667) scale(15.0033 15.0033)">
<stop stop-color="#C01660"/>
<stop offset="1" stop-color="#2B255F"/>
</radialGradient>
<radialGradient id="paint6_radial_642_4286" cx="0" cy="0" r="1" gradientUnits="userSpaceOnUse" gradientTransform="translate(26.2618 21.6905) scale(14.2447 14.2447)">
<stop stop-color="#C01660"/>
<stop offset="1" stop-color="#2B255F"/>
</radialGradient>
<radialGradient id="paint7_radial_642_4286" cx="0" cy="0" r="1" gradientUnits="userSpaceOnUse" gradientTransform="translate(32.5802 27.2689) scale(8.60524)">
<stop stop-color="#C01660"/>
<stop offset="1" stop-color="#2B255F"/>
</radialGradient>
<clipPath id="clip0_642_4286">
<rect width="134.464" height="39.8025" fill="white" transform="translate(0.0927734)"/>
</clipPath>
</defs>
</svg>
